<svg xmlns="http://www.w3.org/2000/svg" width="256" height="256" viewBox="0 0 100 100"><rect width="100" height="100" rx="20" fill="#8395cd"></rect><path fill="#fff" d="M70.20 11.34Q72.55 11.34 74.17 12.47Q75.78 13.59 75.78 15.22L75.78 15.22Q75.78 18.09 73.98 19.85Q72.19 21.61 68.86 21.61L68.86 21.61Q63.64 21.61 60.94 21.70L60.94 21.70Q60.75 22.78 59.31 31.41L59.31 31.41Q57.70 41.05 57.34 43.20L57.34 43.20L55.45 55.00Q53.47 68.22 52.30 77.14L52.30 77.14Q54.19 77.05 57.42 77.05L57.42 77.05Q62.19 77.05 63.91 78.31Q65.61 79.56 65.61 82.08L65.61 82.08Q65.61 84.42 63.77 86.05Q61.92 87.67 58.59 87.67L58.59 87.67Q56.34 87.67 51.48 87.48L51.48 87.48Q46.98 87.31 45.55 87.31L45.55 87.31Q39.88 87.31 33.13 88.30L33.13 88.30Q30.16 88.75 28.89 88.75L28.89 88.75Q26.91 88.75 25.57 87.67Q24.21 86.58 24.21 84.52L24.21 84.52Q24.21 81.28 27.10 79.47Q29.98 77.67 35.20 77.59L35.20 77.59L39.42 77.50L39.70 75.52Q41.86 61.12 42.84 55.17L42.84 55.17L44.83 43.39Q46.63 32.95 48.06 21.88L48.06 21.88L40.51 21.97Q37.27 21.97 36.05 20.93Q34.84 19.89 34.84 18.00L34.84 18.00Q34.84 11.89 43.66 11.44L43.66 11.44Q47.80 11.26 53.73 11.26L53.73 11.26L70.20 11.34Z"></path></svg>